<svg xmlns="http://www.w3.org/2000/svg" fill="none" viewBox="0 0 136 22"><path fill="#000" d="M.75.806h5.395l4.183 6.116L14.51.806h5.481L13.27 10.47 20.54 21h-5.51l-4.702-6.693L5.683 21H.29L7.5 10.672.75.806zM21.723 21V.806h4.644v13.155L36.003.806h4.385V21h-4.616V7.874L26.137 21h-4.414zM44.457 21V.806h3.866l8.596 14.251h-2.048L63.324.807h3.865L67.22 21h-4.386l-.028-13.472h.836l-6.78 11.337h-2.076L47.86 7.528h.98V21h-4.384z"/><path fill="#68A74A" d="M71.51 21V.806h16.3v3.722H76.153v4.154h5.597c2.442 0 4.298.51 5.568 1.529 1.288 1.02 1.933 2.5 1.933 4.442 0 2-.712 3.558-2.135 4.674C85.694 20.442 83.684 21 81.087 21H71.51zm4.644-3.462h4.674c1.192 0 2.106-.23 2.74-.692.635-.48.952-1.173.952-2.077 0-1.77-1.23-2.654-3.692-2.654h-4.674v5.423zM91.85 21V.806h4.644v13.155L106.129.806h4.385V21h-4.615V7.874L96.263 21H91.85zM124.248 21.346c-1.596 0-3.077-.26-4.443-.779a10.67 10.67 0 0 1-3.519-2.192 10.297 10.297 0 0 1-2.308-3.318c-.539-1.269-.808-2.654-.808-4.154s.269-2.885.808-4.154a10.09 10.09 0 0 1 2.337-3.318 10.67 10.67 0 0 1 3.519-2.192c1.346-.52 2.808-.779 4.385-.779 1.596 0 3.058.26 4.385.779 1.346.52 2.51 1.25 3.491 2.192 1 .943 1.779 2.049 2.336 3.318.558 1.25.837 2.635.837 4.154 0 1.5-.279 2.895-.837 4.183a10.072 10.072 0 0 1-2.336 3.318c-.981.923-2.145 1.644-3.491 2.163-1.327.52-2.779.78-4.356.78zm-.029-3.98c.904 0 1.731-.155 2.481-.462a5.95 5.95 0 0 0 2.019-1.327 5.876 5.876 0 0 0 1.327-2.049c.327-.788.491-1.663.491-2.625s-.164-1.837-.491-2.625a5.875 5.875 0 0 0-1.327-2.048 5.646 5.646 0 0 0-1.99-1.327 6.696 6.696 0 0 0-2.51-.462 6.7 6.7 0 0 0-2.51.462 6.02 6.02 0 0 0-1.99 1.327 6.244 6.244 0 0 0-1.356 2.048c-.308.788-.462 1.663-.462 2.625 0 .942.154 1.818.462 2.625a6.485 6.485 0 0 0 1.327 2.049 5.95 5.95 0 0 0 2.019 1.327 6.7 6.7 0 0 0 2.51.461z"/></svg>