<svg xmlns="http://www.w3.org/2000/svg" fill="none" viewBox="0 0 22 22"><path fill="#fff" fill-rule="evenodd" d="M1.512 9.749c5.906-2.54 9.844-4.215 11.814-5.024 5.626-2.31 6.795-2.712 7.557-2.725.168-.003.542.038.785.233.205.164.261.386.288.541.027.156.06.51.034.788-.305 3.162-1.624 10.837-2.295 14.379-.284 1.498-.843 2-1.384 2.05-1.177.107-2.07-.767-3.21-1.505-1.782-1.154-2.79-1.872-4.52-2.998-2-1.301-.704-2.016.436-3.185.298-.306 5.482-4.96 5.582-5.383.012-.053.024-.25-.094-.354-.119-.104-.294-.068-.42-.04-.179.04-3.027 1.899-8.545 5.576-.808.548-1.54.815-2.197.801-.723-.015-2.114-.403-3.149-.735-1.268-.407-2.276-.623-2.189-1.314.046-.36.548-.729 1.507-1.105z" clip-rule="evenodd"/></svg>